<svg xmlns="http://www.w3.org/2000/svg" viewBox="0 0 640 320"><title>bottle curl — draft two-position diagram</title><defs><marker id="arrow" markerWidth="7" markerHeight="7" refX="5" refY="3" orient="auto"><path d="M0 0 L6 3 L0 6" fill="#ff6573"/></marker></defs><rect width="640" height="320" rx="22" fill="#15171e"/><path d="M320 30 V282" stroke="#ffffff22"/><g transform="translate(20,8)"><circle cx="135" cy="80" r="14" fill="none" stroke="#ececf4" stroke-width="7"/><polyline points="135,100 135,175 113,255 100,260" fill="none" stroke="#ececf4" stroke-width="9" stroke-linecap="round" stroke-linejoin="round"/><polyline points="135,175 155,255 167,260" fill="none" stroke="#ececf4" stroke-width="9" stroke-linecap="round" stroke-linejoin="round"/><polyline points="135,115 109,152 109,202" fill="none" stroke="#ececf4" stroke-width="9" stroke-linecap="round" stroke-linejoin="round"/><polyline points="101,202 117,202" fill="none" stroke="#ff6573" stroke-width="12" stroke-linecap="round" stroke-linejoin="round"/></g><g transform="translate(330,8)"><circle cx="135" cy="80" r="14" fill="none" stroke="#ececf4" stroke-width="7"/><polyline points="135,100 135,175 113,255 100,260" fill="none" stroke="#ececf4" stroke-width="9" stroke-linecap="round" stroke-linejoin="round"/><polyline points="135,175 155,255 167,260" fill="none" stroke="#ececf4" stroke-width="9" stroke-linecap="round" stroke-linejoin="round"/><polyline points="135,115 109,152 132,112" fill="none" stroke="#ececf4" stroke-width="9" stroke-linecap="round" stroke-linejoin="round"/><polyline points="124,110 140,110" fill="none" stroke="#ff6573" stroke-width="12" stroke-linecap="round" stroke-linejoin="round"/></g><g font-family="Arial,sans-serif" text-anchor="middle" fill="#c8cad6" font-size="15"><text x="160" y="303">1 · Start</text><text x="480" y="303">2 · Move, then return</text></g><path d="M291 155 H340" stroke="#ff6573" stroke-width="4" marker-end="url(#arrow)"/></svg>